<svg width="147" height="32" fill="none" xmlns="http://www.w3.org/2000/svg"><path d="M8.73 25.221a9.654 9.654 0 01-3.155-.584c-1.029-.374-1.964-.997-2.805-1.87-.842-.873-1.516-2.045-2.022-3.518C.249 17.776 0 15.938 0 13.733c0-2.088.206-3.943.62-5.564.42-1.62 1.024-2.988 1.811-4.102.787-1.122 1.737-1.975 2.852-2.56C6.397.924 7.647.632 9.034.632c1.426 0 2.692.28 3.799.842a7.138 7.138 0 012.688 2.325c.693.99 1.133 2.116 1.32 3.378h-3.564c-.242-.997-.72-1.812-1.438-2.443-.716-.63-1.652-.946-2.805-.946-1.753 0-3.12.763-4.102 2.29-.974 1.528-1.465 3.65-1.473 6.37h.176a6.496 6.496 0 011.52-1.73 6.788 6.788 0 012.033-1.11 7.155 7.155 0 012.384-.397c1.387 0 2.641.339 3.763 1.016 1.13.67 2.03 1.598 2.7 2.782.67 1.184 1.005 2.54 1.005 4.067 0 1.527-.346 2.91-1.04 4.15a7.627 7.627 0 01-2.899 2.944c-1.246.717-2.703 1.068-4.37 1.052zm-.011-3.038c.92 0 1.741-.226 2.466-.678a4.891 4.891 0 001.718-1.823c.42-.764.631-1.617.631-2.56 0-.92-.207-1.757-.62-2.513a4.676 4.676 0 00-1.682-1.8c-.71-.444-1.52-.666-2.431-.666-.694 0-1.337.133-1.929.397a4.9 4.9 0 00-1.543 1.1 5.342 5.342 0 00-1.051 1.612c-.25.6-.374 1.235-.374 1.905a5.08 5.08 0 002.337 4.336c.732.46 1.558.69 2.478.69zm12.906 2.711V.958h8.765c1.699 0 3.105.28 4.22.842 1.113.553 1.947 1.305 2.5 2.256.553.942.83 2.006.83 3.19 0 .997-.183 1.839-.55 2.525a4.524 4.524 0 01-1.472 1.636 6.49 6.49 0 01-2.01.888v.234c.795.039 1.57.296 2.326.771.763.468 1.394 1.134 1.893 1.999.499.865.748 1.916.748 3.155 0 1.224-.288 2.322-.865 3.296-.569.966-1.449 1.734-2.641 2.303-1.192.56-2.715.841-4.57.841h-9.174zm3.61-3.097h5.213c1.73 0 2.97-.335 3.717-1.005.748-.67 1.122-1.508 1.122-2.513 0-.756-.19-1.45-.573-2.08-.381-.631-.927-1.134-1.636-1.508-.701-.374-1.535-.561-2.5-.561h-5.342v7.667zm0-10.484h4.84c.81 0 1.538-.155 2.185-.467a3.825 3.825 0 001.555-1.31c.389-.568.584-1.238.584-2.01 0-.989-.347-1.819-1.04-2.489-.694-.67-1.757-1.005-3.191-1.005h-4.932v7.281zm34.382 13.581H51.87V.958h7.994c2.345 0 4.36.48 6.042 1.438 1.683.95 2.972 2.318 3.869 4.102.903 1.777 1.355 3.908 1.355 6.393 0 2.493-.456 4.636-1.367 6.428-.904 1.792-2.213 3.171-3.927 4.137-1.714.959-3.787 1.438-6.218 1.438zM55.48 21.74h3.939c1.823 0 3.338-.343 4.546-1.029 1.208-.693 2.111-1.695 2.711-3.004.6-1.316.9-2.921.9-4.815 0-1.878-.3-3.471-.9-4.78-.592-1.309-1.476-2.302-2.653-2.98-1.176-.678-2.637-1.017-4.382-1.017H55.48v17.624zm19.86 3.154V6.942h3.494v17.952H75.34zm1.764-20.722c-.607 0-1.13-.202-1.566-.607-.428-.413-.642-.904-.642-1.473 0-.577.214-1.067.642-1.473A2.2 2.2 0 0177.105 0c.607 0 1.125.206 1.554.62.436.405.654.895.654 1.472 0 .569-.218 1.06-.654 1.473a2.18 2.18 0 01-1.555.607zM91.062 32c-1.426 0-2.653-.187-3.681-.561-1.021-.374-1.855-.869-2.502-1.484-.646-.616-1.13-1.29-1.449-2.022l3.004-1.24c.21.344.49.706.841 1.088.359.39.842.72 1.45.993.615.273 1.406.41 2.372.41 1.325 0 2.42-.324 3.284-.97.865-.64 1.298-1.66 1.298-3.063v-3.53h-.222c-.21.382-.515.807-.912 1.274-.39.468-.927.873-1.613 1.216-.686.343-1.578.514-2.676.514-1.418 0-2.696-.33-3.834-.993-1.13-.67-2.026-1.656-2.688-2.957-.654-1.309-.982-2.918-.982-4.827 0-1.909.324-3.545.97-4.909.655-1.363 1.55-2.407 2.689-3.132 1.137-.732 2.427-1.098 3.868-1.098 1.114 0 2.014.187 2.7.56.686.367 1.22.795 1.601 1.286.39.491.69.923.9 1.297h.257v-2.91h3.424v18.35c0 1.542-.358 2.808-1.075 3.798-.717.99-1.687 1.722-2.91 2.197-1.215.475-2.587.713-4.114.713zm-.035-10.273c1.005 0 1.854-.234 2.548-.701.701-.476 1.23-1.154 1.59-2.034.366-.888.549-1.952.549-3.19 0-1.208-.18-2.272-.538-3.191-.358-.92-.884-1.637-1.578-2.15-.693-.523-1.55-.784-2.571-.784-1.052 0-1.928.273-2.63.818-.7.538-1.23 1.27-1.59 2.198-.35.927-.525 1.963-.525 3.108 0 1.177.18 2.21.538 3.097.358.889.888 1.582 1.59 2.08.708.5 1.58.749 2.617.749zm12.821 3.167V6.942h3.495v17.952h-3.495zm1.765-20.722a2.22 2.22 0 01-1.566-.607c-.429-.413-.643-.904-.643-1.473 0-.577.214-1.067.643-1.473A2.197 2.197 0 01105.613 0c.608 0 1.126.206 1.554.62.437.405.655.895.655 1.472 0 .569-.218 1.06-.655 1.473a2.178 2.178 0 01-1.554.607zm14.811 2.77v2.805h-9.806V6.942h9.806zm-7.176-4.3h3.494v16.981c0 .678.101 1.188.304 1.531.203.335.464.565.783.69a3.14 3.14 0 001.064.175c.28 0 .526-.02.736-.058.21-.04.374-.07.491-.094l.631 2.887a5.88 5.88 0 01-.865.234c-.374.085-.841.132-1.402.14a6.155 6.155 0 01-2.572-.491 4.415 4.415 0 01-1.928-1.59c-.491-.716-.736-1.616-.736-2.7V2.642zm16.266 22.649c-1.138 0-2.167-.21-3.086-.63a5.194 5.194 0 01-2.185-1.859c-.53-.81-.795-1.804-.795-2.98 0-1.013.195-1.847.584-2.501a4.318 4.318 0 011.578-1.555 8.228 8.228 0 012.221-.865 22.042 22.042 0 012.501-.444l2.618-.304c.67-.085 1.157-.222 1.461-.409.303-.187.455-.49.455-.911v-.082c0-1.02-.288-1.812-.865-2.373-.568-.56-1.418-.841-2.547-.841-1.177 0-2.104.26-2.782.783-.67.514-1.134 1.087-1.391 1.718l-3.284-.748c.39-1.09.958-1.971 1.706-2.641a6.923 6.923 0 012.607-1.473 10.17 10.17 0 013.097-.467c.717 0 1.476.085 2.279.257a6.67 6.67 0 012.267.911c.709.444 1.29 1.08 1.742 1.905.452.818.678 1.882.678 3.191v11.921h-3.413V22.44h-.14c-.226.452-.565.896-1.017 1.332-.452.436-1.033.799-1.742 1.087-.709.288-1.558.432-2.547.432zm.759-2.805c.966 0 1.792-.19 2.478-.572.693-.382 1.219-.88 1.578-1.496.366-.623.549-1.29.549-1.999v-2.314c-.125.125-.366.242-.725.35-.35.102-.751.192-1.203.27-.452.07-.893.136-1.321.198l-1.075.14a8.667 8.667 0 00-1.859.433c-.553.203-.997.495-1.332.877-.327.373-.491.872-.491 1.495 0 .865.32 1.52.959 1.964.638.436 1.453.654 2.442.654zM146.522.958v23.936h-3.495V.958h3.495z" fill="#101828"/></svg>